<svg xmlns="http://www.w3.org/2000/svg" data-name="Calque 1" viewBox="0 0 35.2 35.2" height="32"><defs><linearGradient id="a" x1="25.749" x2="8.707" y1="32.34" y2="2.822" gradientUnits="userSpaceOnUse"><stop offset=".106" stop-color="#2682b1"/><stop offset="1" stop-color="#4fc2ff"/></linearGradient><linearGradient id="b" x1="7.215" x2="28.179" y1="17.571" y2="17.571" gradientUnits="userSpaceOnUse"><stop offset="0" stop-color="#79d1f8"/><stop offset="1" stop-color="#54aacc"/></linearGradient><linearGradient id="c" x1="-8969.586" x2="-7343.943" y1="2192.8" y2="2192.8" gradientTransform="matrix(0 -.0104 -.0125 0 45.231 -69.14)" gradientUnits="userSpaceOnUse"><stop offset="0" stop-color="#fff" stop-opacity="0"/><stop offset="1" stop-color="#fff" stop-opacity=".8"/></linearGradient></defs><path fill="url(#a)" fill-rule="evenodd" d="m31.825 12.777-.047-.33a13.194 13.194 0 0 0-4.236-8.425 13.708 13.708 0 0 0-8.357-3.014c-4.12-.28-8.939.18-12.165 3.014a12.583 12.583 0 0 0-4.154 8.202c-.546 6.738-1.58 15.212 5.022 19.39a18.96 18.96 0 0 0 14.577 1.876 13.014 13.014 0 0 0 6.554-3.595 12.755 12.755 0 0 0 2.76-6.575l.14-1.694Z"/><path fill="#fff" d="M17.501 35.2a23.26 23.26 0 0 1-4.957-.529 13.086 13.086 0 0 1-8.662-5.887c-1.946-3.35-1.948-7.41-1.949-10.992v-.244a27.448 27.448 0 0 1 .769-7.809 13.43 13.43 0 0 1 4.016-6.464C10.078.375 14.286 0 17.582 0h.023c4.868.002 8.34 1.043 10.924 3.275 2.561 2.21 3.987 5.197 4.49 9.4a49.859 49.859 0 0 1 .248 5.832c.003 3.593.009 10.281-4.905 13.686A19.446 19.446 0 0 1 17.5 35.2Zm.08-33.227c-3.137 0-6.723.336-9.574 2.795a11.469 11.469 0 0 0-3.411 5.524 25.898 25.898 0 0 0-.69 7.255v.244c.002 3.496.003 7.11 1.682 10.003a11.125 11.125 0 0 0 7.378 4.95c5.144 1.124 10.745.272 14.272-2.174 3.75-2.597 4.06-7.587 4.056-12.06a48.221 48.221 0 0 0-.235-5.6c-.44-3.686-1.653-6.272-3.819-8.142-2.206-1.904-5.268-2.792-9.636-2.795Z"/><path fill="url(#b)" fill-rule="evenodd" d="M26.985 18.91c-1.573-1.124-4.422-.957-5.938-.48a3.457 3.457 0 0 0-2.443 2.383 19.802 19.802 0 0 1-.223 2.152.817.817 0 0 1-.365.498.698.698 0 0 1-.86-.35 2.03 2.03 0 0 1-.171-1l-.003-9.3c0-.34.033-.741.324-.916a.704.704 0 0 1 .898.317 2.536 2.536 0 0 1 .254 1.018 3.876 3.876 0 0 0 1.182 2.495 4.656 4.656 0 0 0 2.856.858 17.916 17.916 0 0 0 3.505-.19 3.002 3.002 0 0 0 1.324-.442 2.652 2.652 0 0 0 .85-2.314 13.558 13.558 0 0 0-.321-3.33C26.752 6.81 23.015 5.46 19.7 5.18c-3.161-.266-7.035-.309-9.574 1.892a9.224 9.224 0 0 0-2.812 5.82l-.099 1.283v7.646l.099.938c.27 1.776.803 3.83 2.264 5a11.04 11.04 0 0 0 5.756 2.189c3.258.344 7.08.146 9.837-1.763 2.388-1.653 3.04-4.263 2.925-7.026a3.663 3.663 0 0 0-.11-.862 2.541 2.541 0 0 0-1.001-1.389Z" opacity=".75"/><path fill="#fff" d="M17.172 6.006h.076c.405.002.809.017 1.213.032l.547.02a15.328 15.328 0 0 1 2.057.175c.196.033.39.073.583.12a6.205 6.205 0 0 1 4.698 4.831c.206 1.16.09 2.017-.294 2.186a2.951 2.951 0 0 1-.823.153c-.722.072-1.467.147-2.182.147a8.364 8.364 0 0 1-.888-.044 2.142 2.142 0 0 1-1.3-.461 2.532 2.532 0 0 1-.491-1.403l-.013-.108a3.45 3.45 0 0 0-.491-1.613 2.732 2.732 0 0 0-1.888-1.11 3.234 3.234 0 0 0-.502-.038 2.344 2.344 0 0 0-1.856.802 2.68 2.68 0 0 0-.537 1.35 14.877 14.877 0 0 0-.086 2.606c.01.382.02.763.014 1.14-.01.667-.006 1.335-.003 2.003l.003.987v3.68l.014.08.098.592.007.042.011.042c.486 1.88 1.622 2.275 2.521 2.275h.001a3.278 3.278 0 0 0 .964-.13c1.913-.602 1.91-2.951 1.91-4.08v-.087c0-.22.292-.434.538-.574l.024-.014.024-.015a3.927 3.927 0 0 1 2.126-.483 4.393 4.393 0 0 1 2.517.444 1.546 1.546 0 0 1 .591 1.382 5.896 5.896 0 0 1-2.331 4.66 9.793 9.793 0 0 1-2.917 1.224 30.208 30.208 0 0 1-3.49.282h-.234c-2.057 0-4.388-.184-6.079-1.556a6.046 6.046 0 0 1-2.023-3.93l-.093-.834v-7.453l.093-1.164a7.261 7.261 0 0 1 2.136-4.596 5.993 5.993 0 0 1 2.565-1.244 13.387 13.387 0 0 1 3.19-.318m0-.986a14.465 14.465 0 0 0-3.423.345 7.033 7.033 0 0 0-2.982 1.46 8.183 8.183 0 0 0-2.467 5.23l-.098 1.233v7.548l.098.888a7.06 7.06 0 0 0 2.382 4.587c1.896 1.538 4.356 1.777 6.701 1.777h.24a30.852 30.852 0 0 0 3.651-.297 10.661 10.661 0 0 0 3.305-1.38 6.845 6.845 0 0 0 2.763-5.477 2.543 2.543 0 0 0-.987-2.17 5.397 5.397 0 0 0-3.108-.641 4.842 4.842 0 0 0-2.663.64 1.69 1.69 0 0 0-1.036 1.432c0 1.047.037 2.83-1.219 3.225a2.348 2.348 0 0 1-.679.085h-.02c-.919 0-1.324-.716-1.535-1.535l-.1-.592v-3.597c0-.992-.014-1.985 0-2.977a27.383 27.383 0 0 1 .062-3.613 1.75 1.75 0 0 1 .323-.87 1.39 1.39 0 0 1 1.096-.442h.004a2.221 2.221 0 0 1 .343.028 1.784 1.784 0 0 1 1.224.687 2.856 2.856 0 0 1 .341 1.286 3.294 3.294 0 0 0 .774 1.983 3.087 3.087 0 0 0 1.893.744 9.4 9.4 0 0 0 .991.05c.76 0 1.523-.076 2.28-.152a3.681 3.681 0 0 0 1.122-.232c1.167-.511 1.053-2.226.869-3.262a7.23 7.23 0 0 0-5.431-5.615 8.843 8.843 0 0 0-.656-.136 16.071 16.071 0 0 0-2.191-.188c-.596-.019-1.191-.05-1.789-.052h-.078Z"/><path fill="url(#c)" fill-rule="evenodd" d="m9.188 13.338.099-1.184a7.167 7.167 0 0 1 2.04-4.573 7.325 7.325 0 0 1 4.844-1.611c1.351-.07 1.23-.054 1.609-.054a18.188 18.188 0 0 1 3.188.161 16.113 16.113 0 0 1 1.79.525 5.575 5.575 0 0 1 1.993 1.337 5.163 5.163 0 0 1 1.361 1.921 5.076 5.076 0 0 1 .342 2.096q0 1.48-.641 1.48l-1.875.247h-.79a3.947 3.947 0 0 1-2.344-.399 3.168 3.168 0 0 1-.572-2.008 2.272 2.272 0 0 0-1.472-2.048l-.565-.195-.571-.032c-1.645 0-2.529.821-2.529 2.696l-.086 9.83.099.69q.64 2.269 2.516 2.27l.888-.1a2.355 2.355 0 0 0 1.578-1.282 7.169 7.169 0 0 0 .444-2.91q0-.248.543-.592a4.083 4.083 0 0 1 2.17-.494 5.33 5.33 0 0 1 2.566.444 1.87 1.87 0 0 1 .542 1.381v.395l-.148.839-.246.74a5.004 5.004 0 0 1-1.924 2.664 7.343 7.343 0 0 1-2.861 1.233 23.59 23.59 0 0 1-3.503.296c-.544.007-1.085-.06-1.628-.099a11.249 11.249 0 0 1-1.825-.148 18.25 18.25 0 0 1-2.763-1.134c-1.143-.47-1.857-1.892-2.22-4.095l-.049-8.287"/><path fill="#fff" d="M15.514 16.69h-6.66a.148.148 0 0 1 0-.296h6.66a.148.148 0 1 1 0 .296Zm-3.29 4.319a11.604 11.604 0 0 1-3.413-.481.147.147 0 0 1-.092-.188.145.145 0 0 1 .188-.091 11.855 11.855 0 0 0 6.569-.002.145.145 0 0 1 .184.099.147.147 0 0 1-.099.184 11.569 11.569 0 0 1-3.337.479Zm-.61 3.931a6.121 6.121 0 0 1-2.236-.404.147.147 0 0 1-.075-.194.152.152 0 0 1 .195-.077 5.797 5.797 0 0 0 6.319-1.477.146.146 0 0 1 .209-.004.148.148 0 0 1 .005.209 5.945 5.945 0 0 1-4.417 1.948Zm5.39 2.902a.15.15 0 0 1-.093-.033.148.148 0 0 1-.022-.208 3.867 3.867 0 0 0 .422-3.708.147.147 0 0 1 .08-.193.146.146 0 0 1 .194.08 4.089 4.089 0 0 1-.466 4.006.146.146 0 0 1-.115.056Zm9.309-4.855a.148.148 0 0 1-.108-.048 6.202 6.202 0 0 0-5.905-1.544.151.151 0 0 1-.18-.106.15.15 0 0 1 .105-.181 6.505 6.505 0 0 1 6.197 1.63.148.148 0 0 1-.008.21.15.15 0 0 1-.1.039Zm-3.416 4.153a.147.147 0 0 1-.145-.118 5.324 5.324 0 0 0-3.7-3.67.148.148 0 0 1-.098-.186.15.15 0 0 1 .185-.098 5.627 5.627 0 0 1 3.903 3.894.149.149 0 0 1-.115.175.11.11 0 0 1-.03.003Zm-7.378-14.174a.149.149 0 0 1-.043-.006 11.808 11.808 0 0 0-6.569-.002.148.148 0 1 1-.096-.28 12.112 12.112 0 0 1 6.75-.001.148.148 0 0 1-.042.29Zm.405-2.502a.15.15 0 0 1-.108-.046A5.8 5.8 0 0 0 9.498 8.94a.148.148 0 0 1-.12-.27 6.102 6.102 0 0 1 6.653 1.544.148.148 0 0 1-.107.25Zm1.524-.947a.148.148 0 0 1-.137-.204 3.867 3.867 0 0 0-.422-3.708.148.148 0 0 1 .23-.185 4.091 4.091 0 0 1 .466 4.006.148.148 0 0 1-.137.091Zm4.464 2.432a6.636 6.636 0 0 1-1.687-.222.149.149 0 0 1-.106-.181.15.15 0 0 1 .181-.106 6.217 6.217 0 0 0 5.905-1.543.148.148 0 0 1 .217.2 6.566 6.566 0 0 1-4.51 1.852Zm-2.816-1.804a.148.148 0 0 1-.043-.29 5.307 5.307 0 0 0 3.698-3.67.148.148 0 0 1 .291.059 5.626 5.626 0 0 1-3.903 3.895.15.15 0 0 1-.043.006Z"/><path fill="#fff" d="M24.869 18.94q-.12.043-.239.08l-.003.108c.48.308.497 1.541.455 1.867a5.269 5.269 0 0 1-1.254 3.092 5.21 5.21 0 0 1-2.479 1.295 14.34 14.34 0 0 1-3.7.604c-.606 0-1.21-.05-1.77-.105a9.172 9.172 0 0 1-2.635-.71 4.313 4.313 0 0 1-2.023-1.618 7.146 7.146 0 0 1-.703-3.657l-.03-2.303-.028-2.303a12.865 12.865 0 0 1 .577-4.91 4.682 4.682 0 0 1 2.09-2.412 4.192 4.192 0 0 1 1.159-.348c.12-.024.24-.048.36-.075a12.238 12.238 0 0 1 2.317-.184c.528-.015 1.059-.033 1.589-.035.247-.001.494.001.74.009a8.739 8.739 0 0 1 2.193.285q.12.036.238.077a.926.926 0 0 0 .224.084 5.796 5.796 0 0 1 3.122 4.286c.068.363.116 1.408-.483 1.65a2.036 2.036 0 0 1 .16.255c.741-.346.697-1.516.614-1.96a6.052 6.052 0 0 0-3.301-4.505 8.976 8.976 0 0 0-3.585-.515c-.31.005-.618.014-.922.02q-.348.006-.696.015a11.94 11.94 0 0 0-2.274.23 6.1 6.1 0 0 0-1.592.449 4.979 4.979 0 0 0-2.228 2.563 12.98 12.98 0 0 0-.598 5.025l.058 4.606a7.28 7.28 0 0 0 .748 3.81 4.584 4.584 0 0 0 2.16 1.734 9.562 9.562 0 0 0 2.72.731c.596.058 1.199.107 1.798.107a14.606 14.606 0 0 0 3.78-.614 5.607 5.607 0 0 0 2.613-1.376 5.647 5.647 0 0 0 1.334-3.26c.025-.19.088-1.587-.506-2.091Z"/><path fill="#fff" d="M14.02 12.592a5.653 5.653 0 0 1 .728-3.373 3.355 3.355 0 0 1 2.746-1.254 4.164 4.164 0 0 1 1.18.17 3.573 3.573 0 0 1 2.27 1.82 9.407 9.407 0 0 1 .478 2.143c.03.149.072.778.108.926a1.278 1.278 0 0 0 1.127 1.046 1.897 1.897 0 0 1 .012-.297.992.992 0 0 1-.852-.82 6.838 6.838 0 0 1-.054-.472 6.557 6.557 0 0 0-.05-.44c-.04-.205-.072-.412-.103-.618a5.811 5.811 0 0 0-.398-1.592 3.837 3.837 0 0 0-2.454-1.98 4.44 4.44 0 0 0-1.264-.182 3.613 3.613 0 0 0-2.985 1.375 5.99 5.99 0 0 0-.785 3.547l-.01 2.793-.014 3.338a13.277 13.277 0 0 0 .509 4.496 3.968 3.968 0 0 0 1.292 1.818 3.93 3.93 0 0 0 2.316.603 4.517 4.517 0 0 0 .772-.067 3.183 3.183 0 0 0 1.801-.793 5.181 5.181 0 0 0 1.406-3.871c0-.016 0-.048-.002-.094a2.728 2.728 0 0 1 .302-1.712 1.678 1.678 0 0 0-.047-.131l-.238.023a3.927 3.927 0 0 0-.311 1.904 5.044 5.044 0 0 1-1.309 3.662 2.896 2.896 0 0 1-1.652.72 4.218 4.218 0 0 1-.722.063 3.643 3.643 0 0 1-2.135-.541 3.649 3.649 0 0 1-1.195-1.684 12.909 12.909 0 0 1-.49-4.395l.023-6.13Z"/></svg>