<svg xmlns="http://www.w3.org/2000/svg" width="933.333" height="933.333" version="1.0" viewBox="0 0 700 700"><path d="M306.5 43.1c-57.2 4.4-103 20.2-138.5 47.7-36.1 28-63.5 71.6-77 122.7-9.5 35.9-12.7 80.1-11.7 161 .8 58.7 2.4 79.4 8.7 110.7 5.9 29.4 18.2 59.3 32.8 79.8 7.8 11 24.4 28.6 35.2 37.3 31.1 25.1 71.5 42.6 117 50.7 86.4 15.3 175 4.2 241.6-30.4 38.3-19.9 61.3-42.8 78.4-78.1 20-41 28-92.3 28-179.5 0-30.4-1.4-72.1-3.1-90-6.5-71.2-25.3-122.2-59.1-160-39.1-43.7-92.3-66.1-170.8-72-15.7-1.2-65.5-1.1-81.5.1zm80.4 60.9c20 1.1 31 2.4 43.1 5 26.8 5.9 50.8 18.6 70.6 37.3 12.7 12 21.2 23.6 28.9 39.2 7.6 15.3 10.9 26.3 13.1 42.9 4.3 32.1-3.4 51.9-22.3 57.5-14.6 4.5-62.7 7.4-82.3 5.2-24.1-2.9-37-10.3-44.9-25.9-3.7-7.4-5.7-14.9-7.7-29.8-2.8-20.4-7-27.5-19.7-33.5-16.6-7.7-36.3-3.6-42.6 9-5.4 10.7-5.8 21.6-5.1 129.6.7 100.3.4 95.9 6.4 109.1 6.4 14 18.9 20.3 34.6 17.4 8.2-1.5 12.7-3.8 17.4-9.1 8.2-9 11.3-20.4 12.2-44.9.8-19.6 2-23.4 9.8-30.8 17.4-16.5 43.5-23 80.1-20.2 25.8 2 39.3 6.6 49.5 16.9 10.5 10.5 14.6 23.4 13.7 43.1-2 41.3-23.9 82.4-55 103-13.3 8.8-40.4 20.6-57.2 24.9-24.3 6.2-92 9.2-125.6 5.6-73.6-7.8-117.8-42.3-133.5-104.2-5.4-21.2-5.6-25.9-5.1-120.1.4-81.9.5-87.3 2.4-97.7 12.2-65.6 41.4-103.5 92.8-120.1 15.3-5 29.2-7.7 49.5-9.7 7.9-.8 60.7-.6 76.9.3z"/><path d="M318 122.7c-44.2 3.1-74.5 14.5-95.8 36-4.1 4.1-7.2 7.6-7 7.8.1.1 6.6 0 14.3-.4l14-.6 5-3.9c10.3-8.1 23.5-12.6 50-17.1 8-1.3 35.7-3.5 45.7-3.5h3.6l-1-3.8c-.5-2-2.1-6.3-3.5-9.5l-2.6-5.7-9.1.2c-5 .1-11.1.3-13.6.5zm32.5 5.1c1.3 3.1 2.6 7.3 3 9.3l.7 3.7 23.6.5c26.7.5 37 1.9 52.5 7.2l9.8 3.3 3.9-7.9c2.2-4.3 4-8.2 4-8.7 0-.9-13.7-5.5-21.5-7.2-12.8-2.8-50.2-5.8-75.7-6h-2.7l2.4 5.8zM450 146c-2.2 4.4-4 8.1-4 8.3 0 .2 2.8 2.1 6.3 4.3 14.4 8.8 30.9 28.7 39.9 48.2 2.2 4.8 4.2 8.9 4.4 9.1.9 1 19.4-12.8 19.4-14.5 0-2.4-7.8-16.5-13.6-24.5-6.8-9.4-19.4-21.8-28.3-27.9-7.4-4.9-17.9-11-19.2-11-.5 0-2.7 3.6-4.9 8z"/><path d="M327 149c-34.5 1.2-62.2 7.6-74 17-2.4 1.9-2.4 2-.4 2 4 0 19.8 5.1 28.1 9l8.2 3.8 6.8-6.6c11.6-11.4 27.1-18 46.1-19.7 7.9-.7 8.3-.8 7.8-2.9-.3-1.1-.6-2.4-.6-2.9 0-.4-.3-.6-.7-.5-.5.1-10 .4-21.3.8zm29 2.2v3.3l9.1 1.8c15.8 3 30.4 10.3 41.4 20.8l5.2 4.9 6.8-5.8c3.8-3.1 9.3-8.6 12.4-12.2l5.5-6.4-4.3-1.9c-10.7-4.7-35-7.7-61.7-7.7H356v3.2zm85 9.7c0 1.4-17.5 19.5-21.8 22.5l-4 2.8 3.8 7.1c4.6 8.7 6.4 14.4 8.5 26.2.9 4.9 1.8 10.1 2.1 11.4l.5 2.4 12.2-.6c8.3-.4 15.2-1.3 21.7-3.1 10.9-2.8 27-9.3 27-10.8 0-2-7.9-17.8-12.2-24.5-8.9-13.5-20.7-25.4-31.9-31.7-4.7-2.8-5.9-3.1-5.9-1.7z"/><path d="M334.5 161.6c-14.6 3.1-25.2 8.2-33.7 16.4l-6.3 6.1 2.5 1.7c1.4.9 4.8 3.6 7.6 5.9l5.2 4.1 3.8-4c7.1-7.3 19.6-12.8 29-12.8 4.2 0 4.4-.1 5.3-3.8.5-2 1.2-6.1 1.6-9l.7-5.2-6.9.1c-3.7.1-7.7.3-8.8.5zm21.5 2.1c0 1.5-.6 5.6-1.4 9-1.1 5.5-1.1 6.3.3 6.3 6.9 0 23.2 6.5 30.4 12.3l3.8 3 8.5-4.2c4.6-2.3 8.4-4.6 8.4-5.1 0-1.7-12.5-11-20-14.9-8.1-4.2-17.6-7.4-25.2-8.5-4.8-.7-4.8-.7-4.8 2.1zm-137.4 9.4c-4.7.5-8.6 1.5-9.6 2.4-2.4 2.2-10.1 18-14.3 29.5-3.9 10.6-8.3 29-9.3 39.3-.7 6.8-.7 6.8 1.7 6.3 3.2-.8 16.9-3.6 17.4-3.6.2 0 .8-3.3 1.5-7.3 4-24.7 11.3-43 23.4-59.1l6.5-8.6-4.7.1c-2.6.1-8.2.5-12.6 1z"/><path d="M238.8 178.9c-13.5 14.6-23.3 37.1-27.3 62.9l-.7 4.2 8.9-.7c10-.9 35.1-1 46.3-.3l7.5.5.6-12.5c1-18.8 3.5-30.3 9-41.2l2.9-5.7-2.7-1.5c-9-4.6-23.9-9.3-34.9-11.1-4-.6-4.2-.5-9.6 5.4zm48.8 17c-4 9-6.4 19.9-7.6 33.8-.5 6.9-1 13.6-1 14.8 0 1.9 1 2.3 9.1 3.9 5 .9 9.3 1.6 9.5 1.4.1-.2.8-6.7 1.3-14.4 1-13.1 3.7-26.8 6.1-31.3.5-1.1 1-2.4 1-3 0-1.1-13-11.1-14.6-11.1-.6 0-2.3 2.7-3.8 5.9zm113.9-1.6c-4.4 2.3-8.1 4.3-8.3 4.4-.2 0 .8 1.8 2.2 4 2.8 4.3 7.6 17.9 7.6 21.5 0 4.4 2 5.7 11.4 7.3 4.9.8 9.1 1.3 9.4 1.1.2-.3-.7-6.2-2.1-13.3-1.9-9.4-3.6-14.9-6.7-21-2.2-4.6-4.4-8.3-4.8-8.2-.4 0-4.3 2-8.7 4.2zm111.8 17.5c-2.8 2.1-7.1 5.2-9.7 6.8-2.5 1.6-4.6 3.5-4.6 4.2 0 .7.9 4.5 2 8.5 3.8 13.4 3.6 27.3-.5 37.8-.5 1.4.2 1.5 6.2.7 10.2-1.4 13-2.9 15.4-8.3 2.7-6.1 3.5-17 2-28.7-1.1-8.4-4.3-23.4-5.3-24.4-.2-.2-2.7 1.4-5.5 3.4zm-24.8 14.9c-10.8 5.8-31 11-47 12-5.8.3-10.5.9-10.5 1.2 0 .3.5 4.6 1 9.6 1.3 11.5 3.2 16.6 7.8 20.6l3.6 3.2 22.6-.6c12.4-.3 23.7-1 25.1-1.5 6.6-2.6 8.9-19.9 4.9-36.8-1.3-5.2-2.8-9.4-3.4-9.4-.6.1-2.4.8-4.1 1.7zM405 237.8c0 4.2 2.8 14.9 4.9 19.1 2.7 5.2 7.9 9.5 14.6 12 5.2 2 7.5 2.5 7.5 1.8 0-.2-.9-2.1-2-4.4-1-2.2-2.4-8-3-12.9-1.9-16.6-1-15-9-15.8-3.8-.4-8.3-1.1-10-1.6-2.8-.8-3-.7-3 1.8zm-186.9 13.3c-4.1.5-7.7 1.1-8 1.5-.3.3-.8 17.2-1 37.5l-.3 36.9h63.9l.7-37.2c.4-24.5.3-37.5-.3-38.1-1.4-1.4-45.3-1.9-55-.6zm-17.6 2.4c-.5.2-4.5 1.1-8.7 2l-7.8 1.6V327h19.5v-37c0-24.1-.3-37-1-36.9-.5 0-1.4.2-2 .4zM279 290v37h20v-29.4c0-16.1-.3-32.1-.6-35.4l-.7-6.1-6.8-1.6c-3.7-.8-7.9-1.5-9.3-1.5H279v37zm-95 78.4v36.5l3.8 1c6 1.6 16.2 3.4 16.6 3 .2-.2.1-17.5-.3-38.4l-.6-38-9.7-.3-9.8-.3v36.5zm25.5-35.4c-.4.6-.3 18.1.1 39l.7 38 3.6.7c5.5 1.2 57.8 1 58.8-.2.5-.6.7-18.4.5-39.8l-.4-38.7h-31.3c-20.3 0-31.6.4-32 1zm69.5 37.3c0 21.1.2 38.6.5 38.9.4.3 2.3.2 4.3-.2 2-.5 6.3-1.3 9.5-2l5.7-1.1-.2-36.7-.3-36.7-9.7-.3-9.8-.3v38.4zm166.6 10.8c-8 1.1-9.2 1.8-10.6 6.8-1.5 5.1-3 21-2.4 24.7l.6 3.1 9.6.6c15.9 1 30.1 4.6 45.1 11.4 4.1 1.8 7.6 3.2 7.8 3 1.3-1.4 2.4-14.1 2.1-23.7-.5-11.6-3-21.3-6.2-23.9-3.1-2.6-31.6-3.8-46-2zm53.9 4.6c3.6 9.4 4.6 27.1 2.4 40.7-1.1 7.4-1.1 8.1.6 9 1 .6 5 3.5 8.9 6.3 5.3 4 7.2 4.9 7.8 3.9 1.5-2.7 3.8-19.1 3.8-27.4 0-11.6-2.2-19-7.3-24.9-5.6-6.3-18-12.1-16.2-7.6zm-76 1.8c-6.9 3.7-13.3 8.3-14.4 10.3-.4.9-1.1 6.1-1.4 11.5l-.6 9.9 2.3-.6c2.2-.5 15.2-2.5 16.9-2.6.4 0 .7-2.8.7-6.3.1-6.5 1.3-17.2 2.5-22 .9-3.4.1-3.4-6-.2zm-239.1 32.1c.8 11.9 3.8 27.1 7.3 37.4 2.6 7.7 12.7 28.3 14.7 29.9 1.5 1.2 15.3 3.1 22.8 3.1h6.1l-5.5-5.8c-9.5-10-14.8-19.1-19.1-32.7-2.2-7.3-3.3-13.2-5.5-30.9l-.7-5.9-9.2-1.8c-5.1-1-9.8-2.1-10.4-2.5-.9-.5-1 1.7-.5 9.2zm110.1-7.6c-1.6.5-5.6 1.4-8.9 2l-5.9 1.2.7 8.1c1.4 16.7 10.1 47.2 13.4 47.2 2.4 0 14.2-9.9 13.8-11.5-.3-.8-1.6-4.8-3.1-8.8-3.4-9.4-5.5-21.6-5.5-31.5 0-4.2-.3-7.7-.7-7.6-.5 0-2.1.5-3.8.9z"/><path d="M210.6 420.2c1.4 12.9 2.7 21.1 4.5 27.6 3.7 14.1 12.9 28.8 23.1 37.1 5.1 4.2 5.5 4.3 10.8 3.7 8.2-.8 22.2-5.1 31.4-9.7 4.4-2.2 8.2-4.2 8.4-4.3.1-.2-1.1-3.2-2.7-6.7-4.3-9.2-7.8-22.1-9.7-35.6-.8-6.5-1.8-12.8-2-14-.4-2.2-.6-2.2-10.2-1.5-12.6.9-27.8.9-42.4-.1l-11.6-.8.4 4.3zm221 8.9c-1.3 15.6-5.1 29.8-11.3 42.5l-2.5 5.2 11.1 11.1c6.1 6.1 11.6 11.1 12.2 11.1.6 0 4.8-1.8 9.2-4 16.8-8.2 28.2-19.2 35.7-34.5 4-8.2 8-19.5 8-22.5 0-1.2-2.5-2.9-7.8-5.3-15.1-6.9-28.6-10.3-44.7-11.4l-9.2-.6-.7 8.4zm-19.2-5.9-5.1.9-1.2 8.5c-1.4 9.8-4.3 19.9-7.8 26.8-1.3 2.7-2.1 5.2-1.6 5.6.4.4 4.3 2.6 8.5 4.9l7.8 4.2 2-3.3c5-8.2 9.8-25.9 11.5-42.1l.7-6.7-4.8.1c-2.7.1-7.2.6-10 1.1z"/><path d="M497.5 445.7c-2.4 8.4-8.8 21.5-13.9 28.6-7.9 11.2-18 19.2-33.2 26.4l-7.3 3.5 4.6 8.6c2.6 4.8 4.7 8.8 4.8 8.9.3.6 16.8-7.8 22.2-11.3 6.9-4.4 17.9-14.7 23.8-22.4 5.6-7.3 12.8-19.9 16.1-28.4l2.7-6.9-2.4-1.9c-4.7-3.7-14.7-10.8-15.2-10.8-.3 0-1.3 2.6-2.2 5.7zM304 470.2c-3.6 2.8-6.6 5.7-6.8 6.4-.5 2 14.2 16.7 19.7 19.7 5.8 3.2 16.8 6.2 26.4 7.2l6.7.7-.1-5.9c-.2-10.6-.8-11.7-6.1-12.5-11.7-1.6-23.1-8.1-29.3-16.6-1.6-2.3-3.2-4.1-3.5-4.1-.3 0-3.4 2.3-7 5.1zm84.6 2.7c-6.9 7.1-21.2 13.1-30.9 13.1h-3.9l.6 3.7c.3 2.1.8 6.2 1.2 9.2l.6 5.3 6.7-.7c9.1-1 20.5-4 26.9-7.1 5.2-2.5 17.3-12.9 19.2-16.4.8-1.4-.5-2.5-7.4-6.3-4.5-2.6-8.5-4.7-8.7-4.7-.3 0-2.2 1.8-4.3 3.9z"/><path d="M284.5 482.7c-7.8 4-21.6 9-27.6 9.9-2.2.4-4.2 1-4.4 1.5-1.7 2.7 35.5 15.9 53.4 18.9 11.5 1.9 41.8 4.3 43.3 3.4.5-.3.8-2 .8-3.8v-3.3l-7.1-.7c-9.5-1-20.5-3.9-27.4-7.2-5.6-2.8-15.4-11.4-21.1-18.6l-2.9-3.7-7 3.6zm123 6.7c-11.1 11.3-22.2 16.2-42.9 18.9l-9.1 1.3-.3 3.5-.3 3.4 10.5-.7c12.6-.8 29.6-3.8 46.1-7.9 17.1-4.3 22.5-5.9 22.5-6.8 0-.9-16.1-17-18.1-18.1-1-.5-3.5 1.4-8.4 6.4z"/><path d="M214.8 497.4c4.9 5.7 14.9 13.9 22.7 18.7 21.1 13.1 47.6 19.8 85.4 21.9 10.2.6 18.8.7 19.2.3.9-.9 5.9-13.9 5.9-15.2 0-.5-4.4-1.2-9.7-1.6-38.2-2.5-62.6-8.5-86.8-21.4l-9-4.8-15.2-.5-15.2-.5 2.7 3.1zM427 509.1c-13.5 4.1-39.6 9.6-52 10.9-5.8.7-12.9 1.5-15.8 1.8l-5.3.7-2.3 6.5c-1.2 3.6-2.6 7.3-3.1 8.3-.7 1.8-.2 1.8 10.1 1.2 43.1-2.5 59.7-4.6 75-9.6 6.9-2.2 12.8-4.7 13.1-5.5.5-1.4-7.8-16.7-9.3-17-.5-.1-5.2 1.1-10.4 2.7z"/></svg>